<?xml version="1.0" encoding="UTF-8" standalone="no"?>
<svg
   height="40"
   viewBox="0 -960 800 800"
   width="40"
   fill="#c5c5c5"
   version="1.1"
   id="svg1"
   sodipodi:docname="collection-unselected.svg"
   inkscape:version="1.3.2 (1:1.3.2+202311252150+091e20ef0f)"
   inkscape:export-filename="../../skin/ic-collection-n.png"
   inkscape:export-xdpi="96"
   inkscape:export-ydpi="96"
   xmlns:inkscape="http://www.inkscape.org/namespaces/inkscape"
   xmlns:sodipodi="http://sodipodi.sourceforge.net/DTD/sodipodi-0.dtd"
   xmlns="http://www.w3.org/2000/svg"
   xmlns:svg="http://www.w3.org/2000/svg">
  <defs
     id="defs1" />
  <sodipodi:namedview
     id="namedview1"
     pagecolor="#505050"
     bordercolor="#eeeeee"
     borderopacity="1"
     inkscape:showpageshadow="0"
     inkscape:pageopacity="0"
     inkscape:pagecheckerboard="0"
     inkscape:deskcolor="#505050"
     inkscape:zoom="15.3125"
     inkscape:cx="18.677551"
     inkscape:cy="14.922449"
     inkscape:window-width="1920"
     inkscape:window-height="1131"
     inkscape:window-x="0"
     inkscape:window-y="0"
     inkscape:window-maximized="1"
     inkscape:current-layer="svg1" />
  <path
     d="m 327.88052,-305.74027 -165.47477,82.10776 q -14.48557,7.66682 -28.12308,-0.84806 -13.62895,-8.52344 -13.62895,-25.56177 v -447.97343 q 0,-24.07123 17.04689,-41.22092 17.04689,-17.14968 41.31515,-17.14968 h 297.73807 q 24.07124,0 41.21236,17.14968 17.14968,17.14969 17.14968,41.22092 v 447.97343 q 0,17.03833 -13.63751,25.56177 -13.62894,8.51488 -28.3201,0.84806 z m 301.19884,-44.72452 q -8.30072,-8.41209 -8.30072,-20.77323 V -841.43237 H 256.87465 q -12.55816,0 -20.97024,-8.45492 -8.41209,-8.45491 -8.41209,-20.87601 0,-12.4211 8.41209,-20.82462 Q 244.31649,-900 256.87465,-900 h 363.90399 q 24.26827,0 41.41795,17.14968 17.14968,17.14969 17.14968,41.41795 v 470.19435 q 0,12.36114 -8.55771,20.77323 -8.55771,8.41208 -20.97881,8.41208 -12.4211,0 -20.73039,-8.41208 z"
     id="path1"
     style="opacity:0.5;fill:#e5e5e5;stroke-width:0.856628;fill-opacity:1" />
</svg>
