<?xml version="1.0" encoding="UTF-8" standalone="no"?>
<svg
   height="40"
   viewBox="0 -960 800 800"
   width="40"
   fill="#c5c5c5"
   version="1.1"
   id="svg1"
   sodipodi:docname="language.svg"
   inkscape:version="1.3.2 (1:1.3.2+202311252150+091e20ef0f)"
   inkscape:export-filename="../../skin/icon-language-48.png"
   inkscape:export-xdpi="96"
   inkscape:export-ydpi="96"
   xmlns:inkscape="http://www.inkscape.org/namespaces/inkscape"
   xmlns:sodipodi="http://sodipodi.sourceforge.net/DTD/sodipodi-0.dtd"
   xmlns="http://www.w3.org/2000/svg"
   xmlns:svg="http://www.w3.org/2000/svg">
  <defs
     id="defs1" />
  <sodipodi:namedview
     id="namedview1"
     pagecolor="#505050"
     bordercolor="#eeeeee"
     borderopacity="1"
     inkscape:showpageshadow="0"
     inkscape:pageopacity="0"
     inkscape:pagecheckerboard="0"
     inkscape:deskcolor="#505050"
     inkscape:zoom="9.2604167"
     inkscape:cx="24.08099"
     inkscape:cy="24.134983"
     inkscape:window-width="1920"
     inkscape:window-height="1131"
     inkscape:window-x="0"
     inkscape:window-y="0"
     inkscape:window-maximized="1"
     inkscape:current-layer="svg1" />
  <path
     d="M 266.55356,-246.67422 Q 204.53139,-273.34844 158.62595,-319.36271 112.71214,-365.36862 86.356073,-427.80941 60,-490.24181 60,-561.57399 q 0,-71.33219 26.356073,-133.02784 26.356067,-61.70401 72.269877,-107.50898 45.90544,-45.81335 107.92761,-71.85127 Q 328.56735,-900 399.89953,-900 q 71.33219,0 133.34598,26.03792 62.02216,26.03792 107.9276,71.85127 45.91381,45.80497 72.37036,107.50898 Q 740,-632.90618 740,-561.57399 q 0,71.33218 -26.45653,133.76458 -26.45655,62.44079 -72.37036,108.4467 -45.90544,46.01427 -107.9276,72.68849 Q 471.23172,-220 399.89953,-220 q -71.33218,0 -133.34597,-26.67422 z m 133.14504,-28.49101 q 28.70032,-29.93942 48.27481,-68.66979 19.57448,-38.73873 32.3339,-92.3216 H 320.32898 q 11.52031,50.23394 31.0948,90.22852 19.57449,39.98621 48.27482,70.76287 z m -70.56194,-10.04679 q -21.13173,-31.41295 -35.90051,-68.25116 -14.76878,-36.83822 -24.81556,-82.69344 H 143.63112 q 31.41296,59.25094 73.082,92.9579 41.66068,33.70697 112.42354,57.9867 z m 141.9611,-0.83723 q 59.88722,-19.0554 107.82714,-57.46762 47.93991,-38.41221 77.04211,-92.63975 h -123.7513 q -10.88402,45.01799 -25.43511,81.8562 -14.5511,36.83822 -35.68284,68.25117 z M 127.08742,-485.78774 h 132.12361 q -2.5117,-22.60527 -2.93031,-40.50529 -0.41862,-17.90003 -0.41862,-35.28096 0,-20.93081 0.83723,-37.0559 0.83724,-16.1251 3.34893,-36.21867 H 127.08742 q -5.86063,20.09357 -7.95371,35.80005 -2.09308,15.70648 -2.09308,37.47452 0,21.56709 2.09308,38.62989 2.09308,17.06279 7.95371,37.15636 z m 184.03201,0 h 178.39744 q 3.148,-25.9542 3.88476,-42.17976 0.74514,-16.22556 0.74514,-33.60649 0,-16.74465 -0.74514,-32.03251 -0.73676,-15.28786 -3.88476,-41.24206 H 311.11943 q -3.34893,25.9542 -4.18617,41.24206 -0.83723,15.28786 -0.83723,32.03251 0,17.38093 0.83723,33.60649 0.83724,16.22556 4.18617,42.17976 z m 228.63137,0 h 132.75991 q 5.65969,-20.09357 7.85324,-37.15636 2.19355,-17.0628 2.19355,-38.62989 0,-21.76804 -2.19355,-37.47452 -2.19355,-15.70648 -7.85324,-35.80005 H 540.58804 q 2.11819,29.50406 2.95543,44.69146 0.83723,15.18739 0.83723,28.58311 0,18.21817 -1.25586,34.44373 -1.25585,16.22556 -3.37404,41.34252 z m -8.37233,-198.89288 h 124.58854 q -27.42774,-57.37553 -75.36765,-95.78773 -47.93992,-38.41222 -110.33883,-54.1187 21.13173,30.77666 35.68284,66.67717 14.55109,35.90053 25.4351,83.22926 z m -211.04949,0 h 160.81556 q -9.00861,-43.97981 -30.77665,-85.42281 -21.76803,-41.44299 -50.66929,-72.85594 -26.18862,22.40434 -44.50727,59.04161 -18.31864,36.64566 -34.86235,99.23714 z m -176.69786,0 h 125.6267 q 9.20955,-44.81704 23.1411,-80.29894 13.93154,-35.4819 35.90051,-68.77026 -62.59148,15.70648 -109.17508,53.181 -46.59197,37.48288 -75.49323,95.8882 z"
     id="path1"
     style="fill:#e5e5e5;stroke-width:0.837232;fill-opacity:1" />
</svg>
