<?xml version="1.0" encoding="UTF-8" standalone="no"?>
<svg
   height="40"
   viewBox="0 -960 800 800"
   width="40"
   fill="#c5c5c5"
   version="1.1"
   id="svg1"
   sodipodi:docname="reset.svg"
   inkscape:version="1.3.2 (1:1.3.2+202311252150+091e20ef0f)"
   inkscape:export-filename="../../skin/icon-factory-reset-48.png"
   inkscape:export-xdpi="96"
   inkscape:export-ydpi="96"
   xmlns:inkscape="http://www.inkscape.org/namespaces/inkscape"
   xmlns:sodipodi="http://sodipodi.sourceforge.net/DTD/sodipodi-0.dtd"
   xmlns="http://www.w3.org/2000/svg"
   xmlns:svg="http://www.w3.org/2000/svg">
  <defs
     id="defs1" />
  <sodipodi:namedview
     id="namedview1"
     pagecolor="#505050"
     bordercolor="#eeeeee"
     borderopacity="1"
     inkscape:showpageshadow="0"
     inkscape:pageopacity="0"
     inkscape:pagecheckerboard="0"
     inkscape:deskcolor="#505050"
     inkscape:zoom="15.3125"
     inkscape:cx="23.967347"
     inkscape:cy="24"
     inkscape:window-width="1920"
     inkscape:window-height="1131"
     inkscape:window-x="0"
     inkscape:window-y="0"
     inkscape:window-maximized="1"
     inkscape:current-layer="svg1" />
  <path
     d="m 197.33982,-559.98416 q 0,15.64711 1.97965,30.21729 1.97964,14.57811 5.55884,27.84964 2.75566,10.8247 -0.99774,21.65731 -3.75341,10.8247 -13.60412,15.73422 -9.84279,4.9016 -20.27948,0.75226 -10.42877,-4.14933 -13.97629,-13.99212 -6.71495,-20.36659 -9.6765,-40.52729 -2.96155,-20.15278 -2.96155,-41.69131 0,-104.48564 75.49573,-180.36146 75.49572,-75.87582 179.79924,-75.87582 h 34.04988 L 387.25901,-861.682 q -6.71496,-6.71495 -6.71496,-15.79756 0,-9.09053 6.905,-15.80549 Q 394.16401,-900 403.65046,-900 q 9.48646,0 16.20142,6.71495 l 85.74236,84.95051 q 8.06903,8.07695 8.06903,19.0917 0,11.01474 -8.06903,19.09169 l -84.95051,84.95051 q -6.71495,6.71495 -16.59734,6.71495 -9.88238,0 -16.59734,-6.71495 -6.905,-6.71496 -6.80997,-16.68445 0.095,-9.97741 6.80997,-16.69236 l 43.69472,-43.6868 h -32.094 q -82.82833,0 -142.2731,59.6269 -59.43685,59.62689 -59.43685,142.65319 z m 405.32036,-0.22172 q 0,-15.45707 -1.88463,-30.12228 -1.88462,-14.67312 -5.65386,-28.54647 -3.35748,-10.8247 0.30091,-21.65731 3.65838,-10.8247 13.50909,-15.73422 9.65275,-4.9016 19.6935,-0.84729 10.03284,4.05432 13.77041,13.70706 7.50681,20.55663 10.86429,41.20829 3.35748,20.64373 3.35748,41.99222 0,104.67568 -75.49573,180.64653 -75.49572,75.96292 -179.60919,75.96292 H 365.6888 l 45.27843,45.27843 q 6.905,6.71495 6.80998,15.79756 -0.095,9.09053 -6.80998,15.80549 -6.905,6.71495 -16.29643,6.71495 -9.39144,0 -16.10639,-6.71495 l -85.74237,-84.95051 q -8.06903,-8.07695 -8.06903,-18.99667 0,-10.91972 8.06903,-18.99667 l 85.93241,-85.74237 q 6.52491,-6.71495 16.01137,-6.80998 9.48646,-0.095 16.29643,6.71496 6.80998,6.80998 6.80998,16.19349 0,9.39143 -6.71495,16.10639 l -45.46848,45.46056 h 35.26143 q 82.82833,0 142.2731,-59.6269 59.43685,-59.62689 59.43685,-142.84323 z"
     id="path1"
     style="fill:#e5e5e5;stroke-width:0.791858;fill-opacity:1" />
</svg>
